<?xml version="1.0" encoding="iso-8859-1"?>
<!-- Generator: Adobe Illustrator 19.0.0, SVG Export Plug-In . SVG Version: 6.00 Build 0)  -->
<svg version="1.1" id="Capa_1" xmlns="http://www.w3.org/2000/svg" xmlns:xlink="http://www.w3.org/1999/xlink" x="0px" y="0px"
	 viewBox="0 0 385.36 385.36" style="enable-background:new 0 0 385.36 385.36;" xml:space="preserve">
<g>
	<path style="fill:#45B549;" d="M185.414,107c0-4.032,3.268-7.3,7.3-7.3c4.032,0,7.3,3.268,7.3,7.3v85.68c0,4.032-3.268,7.3-7.3,7.3
		c-4.032,0-7.3-3.268-7.3-7.3V107z"/>
	<path style="fill:#45B549;" d="M266.134,145.2c0-4.032,3.268-7.3,7.3-7.3c4.032,0,7.3,3.268,7.3,7.3v47.48
		c0,4.032-3.268,7.3-7.3,7.3c-4.032,0-7.3-3.268-7.3-7.3V145.2z"/>
	<path style="fill:#45B549;" d="M104.694,145.2c0-4.032,3.268-7.3,7.3-7.3s7.3,3.268,7.3,7.3v47.48c0,4.032-3.268,7.3-7.3,7.3
		s-7.3-3.268-7.3-7.3V145.2z"/>
</g>
<path style="fill:#DB5526;" d="M85.614,233.12h214.16v80.52c-0.154,39.546-32.174,71.566-71.72,71.72h-70.72
	c-39.546-0.154-71.567-32.174-71.72-71.72L85.614,233.12z"/>
<path style="fill:#F48120;" d="M85.614,192.68h214.12c11.178,0,20.24,9.044,20.24,20.2v0.04c0,11.156-9.062,20.2-20.24,20.2H85.614
	c-11.178,0-20.24-9.044-20.24-20.2v-0.04C65.374,201.724,74.436,192.68,85.614,192.68z"/>
<g>
	<path style="fill:#F16730;" d="M140.054,19.48c10.92-6.76,32,7.24,46.64,31.24c14.64,24,18,48.96,7.04,55.72
		c-6.8,4-17.44,0.36-28-8.88c7.44-18.28,7.48-34.6-1.04-40c-5.92-3.64-14.72-1.24-24,5.52
		C131.614,43.36,130.934,25.12,140.054,19.48L140.054,19.48z"/>
	<path style="fill:#EF4C23;" d="M245.334,19.48c-10.92-6.76-32,7.24-46.64,31.24c-2.211,3.589-4.214,7.302-6,11.12
		c9.44,20,10.28,38.88,1.04,44.6l-1.04,0.56c6.8,3.24,16.92-0.64,27.04-9.44c-7.44-18.28-7.48-34.6,1.04-40
		c5.92-3.64,14.72-1.24,24,5.52C253.774,43.36,254.454,25.12,245.334,19.48z"/>
	<path style="fill:#CE2526;" d="M199.414,97.96c-0.227,0.901-0.522,1.783-0.88,2.64C198.892,99.743,199.186,98.861,199.414,97.96z
		 M199.694,96.8c0,0.36,0,0.76-0.24,1.12c0.04-0.36,0.12-0.76,0.2-1.24L199.694,96.8z M200.214,92.4
		c-0.066,1.438-0.239,2.868-0.52,4.28C199.974,95.268,200.148,93.838,200.214,92.4z M214.134,31.24
		C210.614,12.88,202.334,0,192.694,0s-17.92,12.88-21.44,31.24c5.921,5.84,11.106,12.382,15.44,19.48
		c2.211,3.589,4.215,7.302,6,11.12c1.787-3.805,3.79-7.504,6-11.08C203.025,43.648,208.21,37.093,214.134,31.24z"/>
</g>
<ellipse transform="matrix(-0.5252 -0.851 0.851 -0.5252 291.578 365.0206)" style="fill:#F16730;" cx="247.624" cy="101.165" rx="51.08" ry="23.28"/>
<g>
	<path style="fill:#EF4C23;" d="M326.054,57.68c-10.92-6.76-32,7.24-46.64,31.24c-2.21,3.576-4.213,7.275-6,11.08
		c9.44,20,10.28,38.88,1.04,44.6l-1.04,0.56c11.28,5.36,31.28-8.48,45.6-31.76C333.854,89.36,337.014,64.44,326.054,57.68
		L326.054,57.68z"/>
	<path style="fill:#CE2526;" d="M280.134,136.16c-0.227,0.901-0.522,1.783-0.88,2.64
		C279.612,137.943,279.906,137.061,280.134,136.16z M280.414,135c0,0.373-0.08,0.747-0.24,1.12
		C280.254,135.747,280.334,135.373,280.414,135z M280.934,130.6c-0.061,1.465-0.235,2.922-0.52,4.36
		C280.699,133.522,280.873,132.065,280.934,130.6z M294.854,69.44c-3.52-18.36-11.8-31.24-21.44-31.24s-17.92,12.88-21.44,31.24
		c5.921,5.84,11.106,12.382,15.44,19.48c2.21,3.576,4.213,7.275,6,11.08c1.787-3.805,3.79-7.504,6-11.08
		C283.748,81.822,288.933,75.28,294.854,69.44z"/>
</g>
<ellipse transform="matrix(-0.5252 -0.851 0.851 -0.5252 45.2619 227.5935)" style="fill:#F16730;" cx="86.126" cy="101.169" rx="51.08" ry="23.28"/>
<g>
	<path style="fill:#EF4C23;" d="M164.694,57.68c-10.92-6.76-32,7.24-46.64,31.24c-2.21,3.576-4.213,7.275-6,11.08
		c9.44,20,10.28,38.88,1.04,44.6l-1.04,0.56c11.16,5.32,31.24-8.52,45.6-32C172.374,89.36,175.534,64.44,164.694,57.68
		L164.694,57.68z"/>
	<path style="fill:#CE2526;" d="M118.654,136.16c-0.228,0.901-0.522,1.783-0.88,2.64
		C118.132,137.943,118.426,137.061,118.654,136.16z M118.934,135c0,0.373-0.08,0.747-0.24,1.12
		C118.774,135.747,118.854,135.373,118.934,135z M119.454,130.6c-0.062,1.464-0.235,2.922-0.52,4.36
		C119.218,133.522,119.392,132.064,119.454,130.6z M133.374,69.44c-3.52-18.36-11.8-31.24-21.44-31.24s-17.92,12.88-21.44,31.24
		c5.921,5.84,11.106,12.382,15.44,19.48c2.21,3.576,4.213,7.275,6,11.08c1.787-3.805,3.79-7.504,6-11.08
		c4.346-7.1,9.545-13.642,15.48-19.48H133.374z"/>
</g>
<g>
</g>
<g>
</g>
<g>
</g>
<g>
</g>
<g>
</g>
<g>
</g>
<g>
</g>
<g>
</g>
<g>
</g>
<g>
</g>
<g>
</g>
<g>
</g>
<g>
</g>
<g>
</g>
<g>
</g>
</svg>
